<?xml version="1.0" standalone="no"?>
<!DOCTYPE svg PUBLIC "-//W3C//DTD SVG 20010904//EN"
 "http://www.w3.org/TR/2001/REC-SVG-20010904/DTD/svg10.dtd">
<svg version="1.0" xmlns="http://www.w3.org/2000/svg"
 width="765.037206pt" height="795.830532pt" viewBox="0 0 765.037206 795.830532"
 preserveAspectRatio="xMidYMid meet">
<metadata>
Created by potrace 1.12, written by Peter Selinger 2001-2015
</metadata>
<g transform="translate(-617.962794,934.842328) scale(0.100000,-0.100000)"
fill="#000000" stroke="none">
<path d="M11534 9343 c-17 -3 -23 -18 -38 -96 -30 -162 -30 -162 -78 -176 -24
-7 -83 -31 -131 -54 l-88 -40 -98 66 c-54 37 -105 67 -114 67 -19 0 -204 -175
-241 -229 l-28 -40 71 -105 72 -105 -25 -48 c-13 -26 -36 -84 -52 -128 -15
-44 -32 -83 -38 -87 -6 -4 -50 -13 -98 -19 -48 -7 -85 -15 -83 -18 12 -11 222
-93 240 -93 11 -1 85 19 164 44 l143 45 38 71 c75 144 166 234 302 303 162 82
361 78 538 -9 112 -54 234 -178 288 -292 119 -247 81 -515 -99 -705 -39 -41
-92 -88 -119 -105 -26 -17 -50 -36 -53 -43 -2 -7 -21 -117 -42 -245 -21 -128
-42 -231 -47 -230 -4 2 -84 73 -176 159 l-169 157 -84 -94 c-46 -52 -85 -98
-87 -102 -1 -4 13 -15 31 -25 33 -18 34 -21 55 -134 12 -64 26 -121 32 -127
15 -15 375 -15 390 0 6 6 15 51 21 100 18 149 16 145 87 171 35 12 94 38 131
57 l69 35 106 -70 c79 -54 110 -69 126 -64 23 7 189 169 233 226 l28 37 -75
107 -74 107 38 77 c21 43 46 103 55 134 12 43 22 58 38 62 12 3 69 14 126 25
57 11 106 21 108 24 3 2 7 55 10 118 6 114 -2 233 -16 256 -4 6 -52 21 -106
32 -55 11 -110 22 -122 25 -16 4 -26 19 -38 60 -8 30 -32 89 -52 130 l-36 75
44 67 c24 38 56 85 72 106 27 35 28 39 14 60 -27 41 -120 139 -190 199 l-68
58 -107 -74 -107 -74 -50 26 c-28 14 -86 40 -130 58 l-80 32 -12 48 c-6 27
-19 83 -27 125 l-17 77 -37 6 c-40 6 -304 6 -338 -1z"/>
<path d="M8390 9100 c-475 -5 -509 -7 -580 -27 -184 -52 -298 -115 -422 -232
-167 -158 -259 -323 -305 -548 -17 -83 -18 -207 -18 -2173 0 -1976 1 -2090 18
-2174 44 -215 112 -348 257 -500 148 -156 349 -251 580 -276 121 -12 1365 -13
1485 0 176 19 337 76 476 171 95 64 236 205 375 375 204 249 261 291 468 339
241 55 367 112 531 240 80 63 215 197 269 268 17 21 52 49 83 64 109 54 211
195 233 324 7 41 10 215 8 486 l-3 422 -112 -106 -113 -105 0 -158 c0 -344
-41 -526 -137 -610 -17 -16 -63 -46 -100 -68 -38 -22 -114 -83 -170 -135 -169
-155 -281 -221 -440 -259 -48 -11 -124 -29 -168 -39 -101 -24 -259 -102 -350
-172 -43 -33 -118 -111 -195 -202 -160 -191 -248 -257 -410 -309 -63 -20 -88
-20 -845 -24 -545 -2 -800 0 -845 8 -182 32 -334 185 -370 375 -8 44 -10 612
-8 2100 l3 2040 23 59 c12 33 36 81 53 107 40 64 135 150 193 177 112 53 70
52 1484 52 721 0 1312 2 1312 5 0 10 -53 90 -108 164 l-55 73 18 34 c10 19 53
78 96 132 43 53 73 98 66 99 -28 6 -1814 8 -2277 3z"/>
<path d="M11790 8323 c-91 -25 -292 -80 -448 -123 l-283 -77 118 -102 c65 -57
120 -107 121 -112 4 -11 12 -3 -372 -423 -166 -181 -328 -360 -361 -397 -33
-36 -199 -219 -369 -405 -170 -187 -348 -382 -395 -434 -47 -52 -119 -130
-159 -174 l-73 -80 117 -110 c65 -61 124 -111 133 -111 16 0 146 140 696 750
562 622 602 666 988 1084 l59 64 124 -124 c68 -68 124 -121 124 -118 0 15 150
904 156 921 7 23 19 25 -176 -29z"/>
<path d="M12851 7721 c-29 -5 -36 -12 -48 -46 l-13 -41 64 -108 c36 -59 68
-116 71 -127 8 -25 -129 -204 -237 -310 -75 -73 -182 -153 -241 -180 l-27 -12
0 -1412 c0 -1263 -2 -1417 -16 -1466 -51 -174 -185 -303 -352 -338 -36 -7
-291 -11 -807 -11 l-755 0 -118 -142 c-109 -131 -175 -199 -305 -316 -26 -23
-47 -45 -47 -47 0 -10 1936 -5 2046 5 353 31 629 217 773 521 22 46 53 127 68
179 l28 95 3 1883 2 1882 -27 -1 c-16 -1 -43 -4 -62 -8z"/>
<path d="M8500 7399 c-173 -29 -313 -180 -340 -365 -12 -85 -13 -874 -1 -874
4 0 58 48 120 106 l111 106 0 186 c0 229 11 333 44 437 35 110 66 144 181 199
94 45 231 126 295 174 l34 26 -24 7 c-38 10 -358 8 -420 -2z"/>
<path d="M9005 7164 c-175 -15 -275 -75 -331 -199 -34 -75 -44 -158 -44 -381
0 -336 -26 -400 -170 -427 l-60 -12 0 -126 0 -127 43 -7 c163 -27 187 -86 187
-471 0 -273 28 -369 130 -457 23 -20 63 -43 88 -51 50 -18 266 -41 282 -31 6
4 10 58 10 129 l0 123 -60 6 c-76 7 -120 32 -145 82 -17 36 -20 69 -26 305 -3
146 -11 280 -17 298 -27 82 -99 167 -161 190 -20 7 -17 11 31 42 56 37 110
107 129 168 7 21 15 149 18 302 8 289 14 322 67 357 17 11 54 20 94 23 l65 5
0 130 0 130 -45 1 c-25 1 -63 0 -85 -2z"/>
<path d="M9460 7005 l0 -66 -22 15 c-29 21 -61 20 -105 -1 -40 -19 -72 -77
-73 -131 0 -50 36 -111 75 -128 44 -18 63 -18 100 2 19 10 31 11 33 5 2 -6 17
-11 33 -11 l29 0 1 73 c0 39 1 124 2 187 l2 115 -37 3 -38 3 0 -66z m-20 -125
c40 -40 15 -130 -36 -130 -57 0 -86 83 -44 128 26 27 54 28 80 2z"/>
<path d="M9926 7039 c-14 -17 -26 -42 -26 -56 0 -16 -7 -27 -20 -30 -13 -3
-20 -14 -20 -29 0 -17 6 -24 20 -24 19 0 20 -7 20 -105 l0 -105 40 0 40 0 0
105 0 105 30 0 c27 0 30 3 30 30 0 28 -3 30 -35 30 -38 0 -40 2 -24 32 8 14
17 18 34 14 24 -6 35 8 35 45 0 16 -7 19 -49 19 -43 0 -53 -4 -75 -31z"/>
<path d="M11166 6939 c-75 -84 -96 -113 -90 -127 4 -9 11 -136 14 -282 8 -313
14 -340 92 -425 28 -31 65 -63 81 -72 l31 -16 -36 -18 c-50 -26 -123 -110
-143 -167 -14 -38 -19 -98 -24 -317 -5 -238 -8 -275 -25 -309 -24 -47 -79 -75
-148 -76 l-48 0 0 -130 0 -129 83 5 c237 14 329 67 387 221 27 74 40 201 40
423 1 197 7 248 38 289 26 35 86 68 139 76 l43 6 0 128 0 128 -46 7 c-69 9
-112 34 -139 80 -29 50 -33 84 -40 360 -7 269 -19 341 -70 418 -14 21 -29 38
-33 37 -4 0 -51 -49 -106 -110z"/>
<path d="M9664 6956 c-118 -53 -106 -233 19 -267 48 -13 104 0 130 29 16 18
16 20 -2 36 -15 14 -24 15 -40 7 -11 -6 -30 -11 -43 -11 -25 0 -68 25 -68 40
0 5 42 11 93 12 l92 3 -3 35 c-2 19 -9 46 -15 59 -27 56 -106 83 -163 57z m94
-68 c26 -26 13 -38 -43 -38 -38 0 -55 4 -55 13 0 22 22 37 55 37 17 0 36 -5
43 -12z"/>
<path d="M8153 5410 c3 -435 4 -458 24 -512 65 -174 177 -273 336 -298 80 -12
445 -12 453 1 7 11 -67 57 -261 164 -88 48 -173 99 -188 114 -90 83 -120 212
-132 576 l-6 180 -115 115 -115 115 4 -455z"/>
<path d="M10408 5599 c-37 -21 -11 -74 33 -67 35 5 47 33 25 57 -21 23 -33 25
-58 10z"/>
<path d="M10530 5415 l0 -175 35 0 35 0 0 175 0 175 -35 0 -35 0 0 -175z"/>
<path d="M9190 5487 c-109 -38 -105 -207 6 -246 48 -17 82 -10 124 25 l31 27
-28 18 c-24 16 -29 16 -43 4 -9 -8 -28 -15 -42 -15 -53 0 -77 71 -38 110 23
23 49 25 75 6 14 -10 25 -11 42 -3 29 13 26 34 -7 58 -35 24 -79 30 -120 16z"/>
<path d="M9453 5489 c-39 -11 -80 -59 -89 -104 -18 -99 73 -177 170 -145 71
23 101 98 71 176 -14 37 -25 50 -59 65 -46 21 -48 21 -93 8z m81 -81 c34 -48
8 -108 -45 -108 -31 0 -59 31 -59 65 0 34 28 65 60 65 18 0 34 -8 44 -22z"/>
<path d="M9763 5485 c-18 -8 -33 -10 -33 -5 0 6 -16 10 -35 10 l-35 0 0 -125
0 -125 35 0 35 0 0 79 c0 83 12 111 49 111 33 0 41 -22 41 -107 l0 -83 35 0
35 0 0 79 c0 87 14 115 54 109 19 -3 21 -11 26 -93 l5 -90 39 -3 39 -3 -6 101
c-4 86 -9 105 -27 125 -32 34 -66 39 -110 17 -30 -15 -41 -16 -56 -6 -33 21
-58 23 -91 9z"/>
<path d="M10735 5493 c-58 -15 -102 -88 -90 -150 18 -95 152 -148 210 -82 17
18 17 21 3 35 -13 14 -22 14 -51 5 -38 -13 -62 -6 -87 23 -11 14 -3 16 74 16
99 0 106 5 85 71 -20 61 -84 97 -144 82z m63 -69 c34 -24 26 -34 -28 -34 -53
0 -68 18 -32 39 24 14 34 13 60 -5z"/>
<path d="M10100 5320 l0 -170 40 0 40 0 0 54 0 54 30 -15 c60 -30 132 18 145
97 8 46 -21 122 -53 139 -26 14 -87 14 -113 1 -13 -7 -19 -7 -19 0 0 5 -16 10
-35 10 l-35 0 0 -170z m168 97 c21 -25 25 -66 8 -92 -21 -31 -70 -35 -86 -6
-14 27 -13 84 2 99 16 16 63 15 76 -1z"/>
<path d="M10400 5365 l0 -125 35 0 35 0 0 125 0 125 -35 0 -35 0 0 -125z"/>
<path d="M11708 2444 c-50 -27 -72 -101 -47 -157 6 -14 28 -34 49 -46 80 -45
171 -14 200 66 13 38 12 46 -3 78 -9 19 -31 44 -49 55 -39 24 -111 26 -150 4z"/>
<path d="M12087 2403 c-4 -3 -7 -231 -7 -505 l0 -498 110 0 110 0 0 505 0 505
-103 0 c-57 0 -107 -3 -110 -7z"/>
<path d="M6625 2359 c-217 -22 -395 -180 -435 -387 -37 -185 27 -363 170 -473
93 -73 173 -100 305 -106 140 -6 231 12 345 69 l85 43 -2 110 c0 61 -2 149 -2
198 l-1 87 -105 0 -105 0 0 -138 c0 -159 6 -149 -104 -172 -102 -21 -219 14
-288 87 -72 76 -94 217 -49 319 54 125 194 194 332 165 64 -13 122 -42 161
-78 l27 -26 74 69 75 69 -22 24 c-35 40 -133 99 -199 119 -74 24 -166 31 -262
21z"/>
<path d="M7685 2364 c-11 -2 -45 -9 -75 -15 -125 -25 -267 -137 -327 -257 -95
-189 -53 -429 99 -567 107 -96 215 -135 376 -135 147 1 244 35 335 121 l52 49
-75 69 -75 69 -37 -33 c-100 -91 -241 -106 -355 -39 -192 112 -175 426 28 513
111 48 212 37 308 -34 l58 -43 74 68 74 68 -20 22 c-34 39 -135 99 -199 119
-61 19 -203 33 -241 25z"/>
<path d="M8655 2360 c-126 -14 -242 -74 -325 -167 -171 -190 -156 -497 32
-667 105 -95 213 -136 363 -136 152 0 267 41 369 132 189 168 202 476 30 677
-102 119 -288 183 -469 161z m192 -220 c61 -27 98 -62 131 -125 23 -43 27 -62
27 -140 0 -74 -4 -98 -22 -131 -35 -66 -70 -101 -130 -131 -145 -71 -328 -2
-383 144 -27 73 -27 182 1 243 64 142 231 204 376 140z"/>
<path d="M9400 1875 l0 -475 105 0 105 0 0 273 c1 247 2 270 16 252 9 -11 50
-76 93 -145 42 -69 98 -160 125 -202 l47 -78 57 0 57 0 67 118 c128 221 190
327 196 334 4 4 6 -119 4 -272 l-3 -280 111 0 110 0 0 475 0 476 -101 -3 -101
-3 -168 -278 c-92 -153 -171 -278 -176 -276 -5 1 -61 88 -125 193 -64 105
-140 230 -170 278 l-54 88 -97 0 -98 0 0 -475z"/>
<path d="M10700 1875 l0 -475 115 0 115 0 0 134 0 134 173 4 c164 3 175 4 233
31 73 34 135 94 166 162 32 70 33 218 2 285 -26 56 -90 122 -143 150 -86 43
-141 50 -408 50 l-253 0 0 -475z m520 267 c19 -9 45 -33 58 -52 20 -29 23 -44
20 -88 -9 -109 -66 -144 -245 -150 l-123 -4 0 156 0 156 128 0 c101 0 134 -4
162 -18z"/>
<path d="M12762 2139 c-122 -16 -235 -102 -291 -219 -23 -48 -26 -68 -26 -155
0 -92 3 -105 32 -160 77 -149 230 -225 426 -212 99 6 182 36 239 87 l41 36
-57 54 c-32 30 -61 56 -66 58 -4 2 -24 -8 -44 -22 -107 -72 -266 -46 -334 54
l-23 35 285 3 286 2 0 43 c0 101 -36 214 -88 273 -34 40 -111 92 -159 108 -58
19 -150 25 -221 15z m158 -181 c46 -24 90 -77 90 -109 0 -18 -11 -19 -175 -19
-161 0 -175 1 -175 18 0 31 48 89 92 111 55 27 112 27 168 -1z"/>
<path d="M13765 2139 c-66 -9 -113 -29 -158 -69 l-37 -32 0 46 0 46 -105 0
-105 0 0 -365 0 -365 110 0 110 0 0 73 c1 39 3 133 6 207 5 113 9 142 27 175
30 55 86 85 160 85 l57 0 0 99 c0 55 -3 102 -7 104 -5 2 -30 0 -58 -4z"/>
<path d="M11670 1765 l0 -365 110 0 110 0 0 365 0 365 -110 0 -110 0 0 -365z"/>
</g>
</svg>
